<svg width="1920" height="1398" viewBox="0 0 1920 1398" fill="none" xmlns="http://www.w3.org/2000/svg">
<path fill-rule="evenodd" clip-rule="evenodd" d="M302.281 201.746C221.648 155.092 147.458 98.0715 81.6022 32.1367C15.6297 -33.817 -41.4023 -108.166 -88.0293 -189L-396 -11.1603C-333.799 96.5598 -257.791 195.667 -169.91 283.638C-82.0495 371.527 16.8406 447.614 124.278 509.988C340.299 635.114 585.51 700.839 835.066 700.505V344.621C647.884 344.87 463.972 295.486 302.026 201.491L302.281 201.746Z" fill="#5C3978"/>
<path fill-rule="evenodd" clip-rule="evenodd" d="M1439.47 1603.04V1674.15C1439.47 1720.9 1430.27 1767.19 1412.4 1810.38C1394.54 1853.57 1368.34 1892.82 1335.33 1925.87C1302.31 1958.92 1263.11 1985.14 1219.98 2003.02C1176.84 2020.9 1130.61 2030.1 1083.92 2030.08V944.745C1376.34 945.186 1663.67 868.228 1916.82 721.666L2094.57 1029.86C1891.87 1147.43 1670.17 1228.52 1439.52 1269.45V1603.04H1439.47Z" fill="#786490"/>
<path fill-rule="evenodd" clip-rule="evenodd" d="M835.424 1603.05V2030.09C788.737 2030.1 742.506 2020.9 699.369 2003.02C656.233 1985.14 617.037 1958.93 584.02 1925.87C551.003 1892.82 524.812 1853.58 506.943 1810.39C489.074 1767.2 479.876 1720.9 479.876 1674.15V1269.5C249.172 1228.6 27.4156 1147.51 -175.321 1029.91L2.17195 721.721C255.451 868.28 542.899 945.236 835.424 944.8V1603.05Z" fill="#786490"/>
<path fill-rule="evenodd" clip-rule="evenodd" d="M1617.22 201.746C1697.82 155.045 1772 98.0284 1837.9 32.1367C1903.76 -33.8788 1960.73 -108.219 2007.38 -189L2315.3 -11.1091C2253.18 96.6687 2177.17 195.787 2089.21 283.689C2001.4 371.657 1902.48 447.752 1794.97 510.039C1578.89 635.251 1333.57 700.981 1083.92 700.556V344.673C1271.16 344.95 1455.15 295.642 1617.22 201.746Z" fill="#5C3978"/>
</svg>
