<svg width="316" height="342" viewBox="0 0 316 342" fill="none" xmlns="http://www.w3.org/2000/svg">
<g clip-path="url(#clip0_35_8)">
<path d="M68.3884 155.937C68.3884 103.948 104.909 61.5074 157.578 61.5074C210.247 61.5074 247.626 104.824 247.626 156.798H316V155.937C316 69.7417 250.175 0 158.422 0C66.6698 0 0 70.6028 0 156.798H68.3884V155.937Z" fill="#00A76D"/>
<path d="M112.568 247.631L144.703 294.77L112.553 341.94L80.4186 294.801L80.4038 294.831L112.553 341.985L224.425 177.859H160.126L112.568 247.631Z" fill="#006C6D"/>
<path d="M144.703 294.77L112.568 247.631L65.0252 177.859H0.725891L80.4185 294.801L112.553 341.94L144.703 294.77Z" fill="#00A76D"/>
<path d="M203.432 247.631L235.567 294.77L203.417 341.94L171.282 294.801L171.253 294.831L203.402 341.985L315.274 177.859H250.975L203.432 247.631Z" fill="#006C6D"/>
<path d="M235.137 294.725L203.002 247.586L155.444 177.814H91.1451L170.853 294.74L202.987 341.894L235.137 294.725Z" fill="#00A76D"/>
<path d="M205.047 149.576C205.047 142.369 204.899 135.132 204.336 127.971C204.024 124.148 202.943 120.416 199.313 117.938C198.824 117.606 198.824 115.476 199.313 114.811C200.158 113.753 201.654 113.406 202.75 112.726C204.14 111.921 205.4 110.902 206.484 109.704C206.247 109.961 204.35 109.251 204.054 109.16C202.899 108.823 201.72 108.581 200.528 108.435C199.899 108.315 199.253 108.327 198.629 108.47C198.005 108.613 197.416 108.883 196.898 109.266C196.515 109.732 196.256 110.291 196.144 110.889C196.032 111.486 196.073 112.103 196.261 112.681C196.424 113.466 195.846 114.388 195.594 115.249H194.542C192.854 111.411 191.031 107.604 189.49 103.706C187.95 99.8079 184.72 98.5388 180.927 97.8438C173.345 96.5608 165.661 96.0145 157.978 96.2121C150.29 96.0135 142.601 96.5599 135.014 97.8438C131.236 98.5388 127.991 99.8079 126.465 103.706C124.939 107.604 123.102 111.411 121.398 115.249H120.332C120.109 114.388 119.517 113.466 119.68 112.681C119.869 112.105 119.913 111.491 119.807 110.894C119.7 110.297 119.448 109.737 119.072 109.266C118.55 108.886 117.958 108.617 117.332 108.474C116.706 108.331 116.059 108.318 115.428 108.435C114.23 108.578 113.046 108.82 111.887 109.16C111.605 109.251 109.679 109.961 109.472 109.704C110.548 110.898 111.797 111.917 113.176 112.726C114.447 113.214 115.625 113.925 116.657 114.826C117.191 115.491 117.191 117.621 116.657 117.953C113.028 120.356 111.946 124.163 111.635 127.986C111.324 131.808 111.176 135.283 111.072 138.955C110.968 142.626 110.924 146.041 110.924 149.531C110.929 150.578 111.008 151.623 111.161 152.658C111.39 154.461 111.771 156.241 112.302 157.976L154.763 158.263V157.976H134.021L134.243 157.765C135.113 156.752 136.081 155.831 137.132 155.015C143.74 151.208 172.053 151.208 178.616 155.015C179.696 155.822 180.689 156.744 181.579 157.765L181.801 157.976H161.756V158.309L203.935 158.566L203.55 158.294V158.097C204.443 155.344 204.947 152.474 205.047 149.576ZM126.124 135.253C119.813 134.8 117.368 132.79 115.635 126.581C115.42 125.738 115.42 124.854 115.635 124.012C115.7 123.75 115.805 123.5 115.946 123.272C116.272 122.788 117.931 122.879 118.835 123.166C122.939 124.511 126.924 126.188 131.058 127.412C134.866 128.499 136.051 131.189 136.673 135.752C132.806 135.57 129.458 135.51 126.124 135.253ZM177.179 132.231C176.779 134.996 175.505 135.782 171.949 135.797H158.007H144.066C140.51 135.797 139.251 134.996 138.821 132.261C138.731 131.671 138.676 131.076 138.658 130.479H177.356C177.334 131.066 177.274 131.651 177.179 132.231ZM166.289 118.15L158.348 118.029H157.652L149.726 118.15C142.184 118.15 134.629 117.636 126.213 117.319C128.169 112.227 129.606 107.952 131.473 103.887C131.878 103.304 132.396 102.812 132.995 102.44C133.593 102.069 134.26 101.826 134.954 101.727C142.564 100.368 150.283 99.746 158.007 99.8684C165.727 99.746 173.441 100.368 181.046 101.727C181.74 101.826 182.407 102.069 183.005 102.44C183.604 102.812 184.122 103.304 184.527 103.887C186.409 107.952 187.846 112.227 189.787 117.319C181.386 117.636 173.845 118.15 166.289 118.15ZM200.365 126.581C198.646 132.79 196.187 134.8 189.876 135.253C186.542 135.51 183.194 135.57 179.327 135.752C179.949 131.219 181.134 128.499 184.942 127.412C189.09 126.218 193.076 124.511 197.165 123.166C198.069 122.879 199.728 122.788 200.054 123.272C200.574 124.292 200.685 125.478 200.365 126.581Z" fill="#00A76D"/>
</g>
<defs>
<clipPath id="clip0_35_8">
<rect width="316" height="342" fill="white"/>
</clipPath>
</defs>
</svg>
