<svg width="451" height="1400" viewBox="0 0 451 1400" fill="none" xmlns="http://www.w3.org/2000/svg">
<rect y="598" width="87" height="193" fill="#00A76D"/>
<rect y="1007" width="87" height="393" fill="#00A76D"/>
<rect width="87" height="383" fill="#00A76D"/>
<path d="M69.76 478L69.6 422H58.96L38.32 456.8L17.36 422H6.64V478H18.8V445.12L35.2 472.08H41.04L57.52 444.4L57.6 478H69.76ZM99.5263 434.32C92.6463 434.32 85.6863 436.16 80.9663 439.52L85.4463 448.24C88.5663 445.76 93.2863 444.24 97.8463 444.24C104.566 444.24 107.766 447.36 107.766 452.72H97.8463C84.7263 452.72 79.3663 458 79.3663 465.6C79.3663 473.04 85.3663 478.64 95.4463 478.64C101.766 478.64 106.246 476.56 108.566 472.64V478H120.246V453.44C120.246 440.4 112.646 434.32 99.5263 434.32ZM98.5663 470.24C94.1663 470.24 91.5263 468.16 91.5263 465.04C91.5263 462.16 93.3663 460 99.2063 460H107.766V464.4C106.326 468.32 102.726 470.24 98.5663 470.24ZM163.621 478H178.741L159.221 453.2L177.141 434.96H162.261L144.021 452.24V418.64H131.541V478H144.021V467.04L150.021 461.12L163.621 478ZM224.639 456.64C224.639 442.8 214.879 434.32 202.239 434.32C189.119 434.32 179.279 443.6 179.279 456.48C179.279 469.28 188.959 478.64 203.839 478.64C211.599 478.64 217.599 476.24 221.599 471.68L214.959 464.48C211.999 467.28 208.719 468.64 204.159 468.64C197.599 468.64 193.039 465.36 191.839 460H224.399C224.479 458.96 224.639 457.6 224.639 456.64ZM202.319 443.76C207.919 443.76 211.999 447.28 212.879 452.72H191.679C192.559 447.2 196.639 443.76 202.319 443.76ZM261.844 428.96C266.484 428.96 269.604 425.92 269.604 421.76C269.604 417.92 266.484 415.04 261.844 415.04C257.204 415.04 254.084 418.08 254.084 422C254.084 425.92 257.204 428.96 261.844 428.96ZM255.604 478H268.084V434.96H255.604V478ZM304.066 467.12C302.706 468.16 300.866 468.72 299.026 468.72C295.666 468.72 293.666 466.72 293.666 463.04V445.52H304.386V435.92H293.666V425.44H281.186V435.92H274.546V445.52H281.186V463.2C281.186 473.44 287.106 478.64 297.266 478.64C301.106 478.64 304.866 477.76 307.426 475.92L304.066 467.12Z" fill="#00A76D"/>
<path d="M31.2 842.32C25.84 842.32 21.44 844 18.24 847.52V826.64H5.76V886H17.68V881.04C20.8 884.8 25.44 886.64 31.2 886.64C43.28 886.64 52.64 878 52.64 864.48C52.64 850.96 43.28 842.32 31.2 842.32ZM29.04 876.4C22.8 876.4 18.08 871.92 18.08 864.48C18.08 857.04 22.8 852.56 29.04 852.56C35.28 852.56 40 857.04 40 864.48C40 871.92 35.28 876.4 29.04 876.4ZM91.8744 842.96V864.24C91.8744 872.16 87.7144 875.84 81.9544 875.84C76.4344 875.84 73.2344 872.64 73.2344 865.44V842.96H60.7544V867.28C60.7544 880.56 68.3544 886.64 79.1544 886.64C84.4344 886.64 89.2344 884.64 92.5144 880.88V886H104.354V842.96H91.8744ZM140.316 875.12C138.956 876.16 137.116 876.72 135.276 876.72C131.916 876.72 129.916 874.72 129.916 871.04V853.52H140.636V843.92H129.916V833.44H117.436V843.92H110.796V853.52H117.436V871.2C117.436 881.44 123.356 886.64 133.516 886.64C137.356 886.64 141.116 885.76 143.676 883.92L140.316 875.12Z" fill="#00A76D"/>
<path d="M20.24 562.64C33.12 562.64 40.56 556.96 40.56 548.96C40.56 532 14.56 539.12 14.56 531.76C14.56 529.52 16.96 527.76 22.56 527.76C26.48 527.76 30.72 528.56 34.96 530.96L39.12 522.08C35.04 519.68 28.48 518.32 22.56 518.32C10 518.32 2.64 524.08 2.64 532.24C2.64 549.44 28.64 542.24 28.64 549.28C28.64 551.68 26.48 553.2 20.72 553.2C15.44 553.2 9.6 551.52 5.76 549.04L1.6 558C5.6 560.64 12.96 562.64 20.24 562.64ZM54.5 512.96C59.14 512.96 62.26 509.92 62.26 505.76C62.26 501.92 59.14 499.04 54.5 499.04C49.86 499.04 46.74 502.08 46.74 506C46.74 509.92 49.86 512.96 54.5 512.96ZM48.26 562H60.74V518.96H48.26V562ZM127.443 518.32C120.963 518.32 115.363 520.96 111.923 525.36C108.883 520.64 103.763 518.32 97.7625 518.32C92.2425 518.32 87.4425 520.24 84.2425 523.92V518.96H72.3225V562H84.8025V540.4C84.8025 532.72 88.7225 529.12 94.2425 529.12C99.4425 529.12 102.403 532.32 102.403 539.28V562H114.883V540.4C114.883 532.72 118.803 529.12 124.403 529.12C129.443 529.12 132.563 532.32 132.563 539.28V562H145.043V537.36C145.043 524.24 137.683 518.32 127.443 518.32ZM181.669 518.32C175.909 518.32 171.269 520.16 168.149 523.92V518.96H156.229V577.52H168.709V557.44C171.909 560.96 176.309 562.64 181.669 562.64C193.749 562.64 203.109 554 203.109 540.48C203.109 526.96 193.749 518.32 181.669 518.32ZM179.509 552.4C173.269 552.4 168.549 547.92 168.549 540.48C168.549 533.04 173.269 528.56 179.509 528.56C185.749 528.56 190.469 533.04 190.469 540.48C190.469 547.92 185.749 552.4 179.509 552.4ZM211.463 562H223.943V502.64H211.463V562ZM277.686 540.64C277.686 526.8 267.926 518.32 255.286 518.32C242.166 518.32 232.326 527.6 232.326 540.48C232.326 553.28 242.006 562.64 256.886 562.64C264.646 562.64 270.646 560.24 274.646 555.68L268.006 548.48C265.046 551.28 261.766 552.64 257.206 552.64C250.646 552.64 246.086 549.36 244.886 544H277.446C277.526 542.96 277.686 541.6 277.686 540.64ZM255.366 527.76C260.966 527.76 265.046 531.28 265.926 536.72H244.726C245.606 531.2 249.686 527.76 255.366 527.76Z" fill="#00A76D"/>
<path d="M20.24 970.64C33.12 970.64 40.56 964.96 40.56 956.96C40.56 940 14.56 947.12 14.56 939.76C14.56 937.52 16.96 935.76 22.56 935.76C26.48 935.76 30.72 936.56 34.96 938.96L39.12 930.08C35.04 927.68 28.48 926.32 22.56 926.32C10 926.32 2.64 932.08 2.64 940.24C2.64 957.44 28.64 950.24 28.64 957.28C28.64 959.68 26.48 961.2 20.72 961.2C15.44 961.2 9.6 959.52 5.76 957.04L1.6 966C5.6 968.64 12.96 970.64 20.24 970.64ZM54.5 920.96C59.14 920.96 62.26 917.92 62.26 913.76C62.26 909.92 59.14 907.04 54.5 907.04C49.86 907.04 46.74 910.08 46.74 914C46.74 917.92 49.86 920.96 54.5 920.96ZM48.26 970H60.74V926.96H48.26V970ZM104.883 926.96V932.48C101.603 928.32 96.6425 926.32 90.6425 926.32C78.7225 926.32 69.1225 934.56 69.1225 947.12C69.1225 959.68 78.7225 967.92 90.6425 967.92C96.2425 967.92 100.963 966.16 104.243 962.56V964.4C104.243 972.16 100.403 976.16 91.6025 976.16C86.0825 976.16 80.0825 974.24 76.4025 971.28L71.4425 980.24C76.4825 984.16 84.4025 986.16 92.5625 986.16C108.083 986.16 116.723 978.8 116.723 962.8V926.96H104.883ZM93.1225 957.68C86.5625 957.68 81.7625 953.44 81.7625 947.12C81.7625 940.8 86.5625 936.56 93.1225 936.56C99.6825 936.56 104.403 940.8 104.403 947.12C104.403 953.44 99.6825 957.68 93.1225 957.68ZM154.498 926.32C148.658 926.32 143.618 928.32 140.258 932V926.96H128.338V970H140.818V948.72C140.818 940.8 145.138 937.12 151.138 937.12C156.658 937.12 159.858 940.32 159.858 947.28V970H172.338V945.36C172.338 932.24 164.658 926.32 154.498 926.32ZM189.891 920.96C194.531 920.96 197.651 917.92 197.651 913.76C197.651 909.92 194.531 907.04 189.891 907.04C185.251 907.04 182.131 910.08 182.131 914C182.131 917.92 185.251 920.96 189.891 920.96ZM183.651 970H196.131V926.96H183.651V970ZM251.313 920.96C255.953 920.96 259.073 917.92 259.073 913.76C259.073 909.92 255.953 907.04 251.313 907.04C246.673 907.04 243.553 910.08 243.553 914C243.553 917.92 246.673 920.96 251.313 920.96ZM227.073 919.84C228.993 919.84 230.753 920.4 232.113 921.36L235.393 912.32C233.073 910.72 229.393 910 225.873 910C215.153 910 209.233 916.32 209.233 926V927.92H202.593V937.52H209.233V970H221.713V937.52H232.433V927.92H221.393V926.08C221.393 921.84 223.393 919.84 227.073 919.84ZM245.073 970H257.553V926.96H245.073V970ZM289.919 970.64C298.959 970.64 306.079 966.64 309.199 959.76L299.519 954.48C297.199 958.64 293.759 960.4 289.839 960.4C283.519 960.4 278.559 956 278.559 948.48C278.559 940.96 283.519 936.56 289.839 936.56C293.759 936.56 297.199 938.4 299.519 942.48L309.199 937.28C306.079 930.24 298.959 926.32 289.919 926.32C275.919 926.32 265.919 935.52 265.919 948.48C265.919 961.44 275.919 970.64 289.919 970.64ZM333.745 926.32C326.865 926.32 319.905 928.16 315.185 931.52L319.665 940.24C322.785 937.76 327.505 936.24 332.065 936.24C338.785 936.24 341.985 939.36 341.985 944.72H332.065C318.945 944.72 313.585 950 313.585 957.6C313.585 965.04 319.585 970.64 329.665 970.64C335.985 970.64 340.465 968.56 342.785 964.64V970H354.465V945.44C354.465 932.4 346.865 926.32 333.745 926.32ZM332.785 962.24C328.385 962.24 325.745 960.16 325.745 957.04C325.745 954.16 327.585 952 333.425 952H341.985V956.4C340.545 960.32 336.945 962.24 332.785 962.24ZM391.92 926.32C386.08 926.32 381.04 928.32 377.68 932V926.96H365.76V970H378.24V948.72C378.24 940.8 382.56 937.12 388.56 937.12C394.08 937.12 397.28 940.32 397.28 947.28V970H409.76V945.36C409.76 932.24 402.08 926.32 391.92 926.32ZM445.473 959.12C444.113 960.16 442.273 960.72 440.433 960.72C437.073 960.72 435.073 958.72 435.073 955.04V937.52H445.793V927.92H435.073V917.44H422.593V927.92H415.953V937.52H422.593V955.2C422.593 965.44 428.513 970.64 438.673 970.64C442.513 970.64 446.273 969.76 448.833 967.92L445.473 959.12Z" fill="#00A76D"/>
</svg>
