<svg width="90" height="94" viewBox="0 0 90 94" fill="none" xmlns="http://www.w3.org/2000/svg">
<g clip-path="url(#clip0_11_2)">
<path d="M39.4046 94H3.95153C2.90352 94 1.89843 93.588 1.15738 92.8548C0.416321 92.1215 0 91.1269 0 90.0899L0 73.3466C0 72.3096 0.416321 71.315 1.15738 70.5817C1.89843 69.8484 2.90352 69.4364 3.95153 69.4364H47.4183C48.5672 69.4364 49.7049 69.2125 50.7663 68.7775C51.8278 68.3424 52.7922 67.7047 53.6046 66.9008C54.417 66.097 55.0614 65.1426 55.5011 64.0923C55.9407 63.042 56.167 61.9162 56.167 60.7794C56.167 59.6425 55.9407 58.5168 55.5011 57.4665C55.0614 56.4161 54.417 55.4618 53.6046 54.6579C52.7922 53.854 51.8278 53.2163 50.7663 52.7813C49.7049 52.3462 48.5672 52.1223 47.4183 52.1223H35.7139C31.2976 52.1223 27.0622 50.3863 23.9394 47.2962C20.8165 44.2061 19.0622 40.015 19.0622 35.6449C19.0622 31.2749 20.8165 27.0838 23.9394 23.9937C27.0622 20.9036 31.2976 19.1676 35.7139 19.1676H70.8667C68.2201 16.6487 65.2203 14.5205 61.96 12.8488C55.519 9.50949 47.932 7.8203 39.4046 7.8203H7.90306V48.2122C7.90306 49.2492 7.48674 50.2437 6.74568 50.977C6.00463 51.7103 4.99954 52.1223 3.95153 52.1223C2.90352 52.1223 1.89843 51.7103 1.15738 50.977C0.416321 50.2437 0 49.2492 0 48.2122L0 3.91015C0 2.87311 0.416321 1.87855 1.15738 1.14526C1.89843 0.411961 2.90352 0 3.95153 0L39.4046 0C49.2202 0 58.04 1.99418 65.5954 5.91997C72.4475 9.39788 78.2718 14.5738 82.5 20.9428C82.8886 21.5329 83.109 22.2159 83.1378 22.9196C83.1665 23.6234 83.0027 24.3218 82.6635 24.941C82.3243 25.5603 81.8223 26.0773 81.2107 26.4376C80.5991 26.7979 79.9004 26.988 79.1886 26.9879H35.7218C33.4015 26.9879 31.1763 27.8999 29.5356 29.5235C27.8949 31.147 26.9731 33.3489 26.9731 35.6449C26.9731 37.9409 27.8949 40.1429 29.5356 41.7664C31.1763 43.3899 33.4015 44.302 35.7218 44.302H47.4183C49.6051 44.302 51.7704 44.7282 53.7907 45.5563C55.811 46.3843 57.6466 47.598 59.1929 49.1281C60.7392 50.6582 61.9657 52.4746 62.8025 54.4738C63.6394 56.4729 64.0701 58.6155 64.0701 60.7794C64.0701 62.9432 63.6394 65.0859 62.8025 67.085C61.9657 69.0841 60.7392 70.9006 59.1929 72.4306C57.6466 73.9607 55.811 75.1744 53.7907 76.0025C51.7704 76.8305 49.6051 77.2567 47.4183 77.2567H7.90306V86.1797H39.4046C47.9241 86.1797 55.5111 84.4827 61.96 81.1434C68.1294 78.029 73.2809 73.2487 76.8177 67.3562C80.2263 61.5049 82.0451 54.8797 82.0969 48.1261C82.1084 47.6126 82.2219 47.1064 82.431 46.6363C82.6401 46.1662 82.9408 45.7415 83.3158 45.3864C83.6908 45.0313 84.1328 44.7528 84.6166 44.5667C85.1004 44.3807 85.6165 44.2907 86.1354 44.302C86.6543 44.3133 87.1659 44.4256 87.641 44.6326C88.116 44.8395 88.5452 45.137 88.9041 45.5081C89.263 45.8792 89.5444 46.3166 89.7325 46.7953C89.9205 47.274 90.0114 47.7847 90 48.2982C89.9234 56.3953 87.723 64.3339 83.6143 71.3368C79.3279 78.4889 73.0799 84.2918 65.5954 88.0722C58.0321 92.0058 49.2123 94 39.4046 94Z" fill="black"/>
</g>
<defs>
<clipPath id="clip0_11_2">
<rect width="90" height="94" fill="white"/>
</clipPath>
</defs>
</svg>
